<?xml version="1.0" standalone="no"?>
<!DOCTYPE svg PUBLIC "-//W3C//DTD SVG 20010904//EN"
 "http://www.w3.org/TR/2001/REC-SVG-20010904/DTD/svg10.dtd">
<svg version="1.0" xmlns="http://www.w3.org/2000/svg"
 width="512.000000pt" height="512.000000pt" viewBox="0 0 512.000000 512.000000"
 preserveAspectRatio="xMidYMid meet">
<metadata>
Created by potrace 1.11, written by Peter Selinger 2001-2013
</metadata>
<g transform="translate(0.000000,512.000000) scale(0.100000,-0.100000)"
fill="#000000" stroke="none">
<path d="M0 2560 l0 -2560 2560 0 2560 0 0 2560 0 2560 -2560 0 -2560 0 0
-2560z m1855 1371 c363 -53 612 -166 814 -370 202 -205 320 -471 352 -791 64
-663 -276 -1225 -856 -1414 -212 -69 -398 -86 -967 -86 l-438 0 0 1341 0 1341
508 -5 c308 -3 538 -9 587 -16z m2365 -775 c63 -13 158 -40 210 -58 l95 -33 3
-147 c1 -83 -1 -148 -6 -148 -5 0 -38 20 -74 43 -80 54 -192 101 -317 134
-127 33 -343 38 -436 10 -170 -53 -255 -146 -255 -281 0 -78 16 -128 57 -175
58 -69 140 -97 418 -146 331 -58 467 -108 570 -212 79 -79 115 -176 115 -312
0 -191 -81 -341 -242 -447 -138 -92 -297 -134 -507 -134 -209 0 -375 30 -578
106 l-103 38 0 158 c0 87 3 158 8 158 4 0 32 -19 62 -41 174 -131 460 -219
670 -205 211 13 345 79 404 198 31 62 36 174 10 236 -46 112 -140 152 -497
213 -280 47 -414 99 -516 198 -85 83 -131 203 -131 341 1 139 40 238 130 331
95 97 228 166 377 194 120 23 384 13 533 -19z"/>
<path d="M1120 2611 l0 -1031 214 0 c470 0 703 45 910 174 142 90 237 195 307
341 76 157 104 328 96 575 -5 177 -27 286 -80 418 -77 188 -252 357 -462 445
-184 77 -318 97 -692 104 l-293 6 0 -1032z"/>
</g>
</svg>
